<?xml version="1.0" encoding="UTF-8"?>
<svg width="27px" height="25px" viewBox="0 0 27 25" version="1.1" xmlns="http://www.w3.org/2000/svg" xmlns:xlink="http://www.w3.org/1999/xlink">
    <!-- Generator: Sketch 50.2 (55047) - http://www.bohemiancoding.com/sketch -->
    <title>每季三励</title>
    <desc>Created with Sketch.</desc>
    <defs></defs>
    <g id="01工作台-签到" stroke="none" stroke-width="1" fill="none" fill-rule="evenodd">
        <g id="01002首页-签到" transform="translate(-168.000000, -330.000000)">
            <g id="Group-10" transform="translate(0.000000, 159.000000)">
                <g id="Group-4" transform="translate(151.000000, 168.000000)">
                    <g id="每季三励" transform="translate(15.000000, 0.000000)">
                        <rect id="Rectangle-4" fill="#D8D8D8" opacity="0" x="0" y="0" width="30" height="30"></rect>
                        <g id="服务管理" transform="translate(2.000000, 3.000000)">
                            <g id="Group-7">
                                <path d="M1.59872116e-13,13.5 L27,13.5 C26.4690342,16.1301602 25.1787443,18.5481112 23.2401123,20.4867432 C20.6401618,23.0866937 17.1780985,24.5205233 13.4982383,24.5205233 C12.3457297,24.5205233 11.2113708,24.3798628 10.1133114,24.1030793 C10.0815494,24.0940044 10.0497873,24.0849295 10.0180253,24.0803921 C9.23758636,23.8762075 8.4752972,23.6039614 7.73569522,23.2636537 C5.98424512,22.4559902 4.44605448,21.308019 3.16196024,19.8515022 C1.5590884,18.0355697 0.477161821,15.8431358 3.37871398e-12,13.5 Z" id="Combined-Shape" fill="#FBC08F"></path>
                                <g id="Group-9" transform="translate(2.892857, 0.000000)">
                                    <path d="M7.91102789,20.8322572 C7.31133781,20.6753616 6.72559401,20.4661674 6.15728306,20.2046746 C4.81146694,19.5840651 3.62951963,18.7019628 2.64282025,17.5827738 C0.937887397,15.6512138 0,13.1652893 0,10.5852273 C0,7.7576188 1.1017562,5.0973657 3.09956095,3.09956095 C5.0973657,1.1017562 7.7576188,0 10.5852273,0 C13.4128357,0 16.0730888,1.1017562 18.0708936,3.09956095 C20.0686983,5.0973657 21.1704545,7.7576188 21.1704545,10.5852273 C21.1704545,13.4128357 20.0686983,16.0730888 18.0708936,18.0708936 C16.0730888,20.0686983 13.4128357,21.1704545 10.5852273,21.1704545 C9.69963843,21.1704545 8.82799587,21.0623709 7.98424587,20.8496901 C7.95983988,20.8427169 7.93543388,20.8357438 7.91102789,20.8322572 Z" id="Combined-Shape" fill="#F7811F" fill-rule="nonzero"></path>
                                    <path d="M13.1653379,14.7987348 C13.1427346,14.7987348 13.1201313,14.7942384 13.0984798,14.7849957 L10.6102181,13.7275809 L8.12195646,14.7849957 C8.0648535,14.8092265 7.99989888,14.8007333 7.95017171,14.763013 C7.90020662,14.725043 7.87260685,14.6628422 7.87688958,14.5981433 L8.06580522,11.7868638 L6.33915433,9.62931792 C6.29965812,9.57985699 6.28704788,9.51241026 6.3060822,9.4509588 C6.32487859,9.38950734 6.37270233,9.34254443 6.43266044,9.32705667 L9.03750732,8.64684394 L10.4584194,6.25598237 C10.5238499,6.14631899 10.6958726,6.14631899 10.7613031,6.25598237 L12.1822152,8.64684394 L14.787062,9.32705667 C14.8470202,9.34279424 14.8948439,9.38950734 14.9136403,9.4509588 C14.9326746,9.51241026 14.9200644,9.57985699 14.8805681,9.62931792 L13.1539173,11.7868638 L13.3428329,14.5981433 C13.3473536,14.6625924 13.3195159,14.7247932 13.2695508,14.763013 C13.2393338,14.7864945 13.2024548,14.7987348 13.1653379,14.7987348 Z" id="Shape" fill="#FFFFFF"></path>
                                </g>
                            </g>
                        </g>
                    </g>
                </g>
            </g>
        </g>
    </g>
</svg>