<?xml version="1.0" encoding="UTF-8"?>
<svg width="270px" height="135px" viewBox="0 0 270 135" version="1.1" xmlns="http://www.w3.org/2000/svg" xmlns:xlink="http://www.w3.org/1999/xlink">
    <!-- Generator: Sketch 50.2 (55047) - http://www.bohemiancoding.com/sketch -->
    <title>工作日志-弹窗背景-总赞数</title>
    <desc>Created with Sketch.</desc>
    <defs>
        <linearGradient x1="50%" y1="0%" x2="50%" y2="100%" id="linearGradient-1">
            <stop stop-color="#628FF7" offset="0%"></stop>
            <stop stop-color="#3555DE" offset="100%"></stop>
        </linearGradient>
        <rect id="path-2" x="0" y="0" width="270" height="135"></rect>
        <linearGradient x1="50%" y1="56.2774229%" x2="50%" y2="60.0931601%" id="linearGradient-4">
            <stop stop-color="#FFFFFF" stop-opacity="0.140511775" offset="0%"></stop>
            <stop stop-color="#FFFFFF" offset="100%"></stop>
        </linearGradient>
        <linearGradient x1="50%" y1="56.2774229%" x2="50%" y2="60.0931601%" id="linearGradient-5">
            <stop stop-color="#FFFFFF" stop-opacity="0.188660553" offset="0%"></stop>
            <stop stop-color="#FFFFFF" offset="100%"></stop>
        </linearGradient>
    </defs>
    <g id="总结导出" stroke="none" stroke-width="1" fill="none" fill-rule="evenodd">
        <g id="01001工作日志" transform="translate(-45.000000, -148.000000)">
            <g id="点赞总数" transform="translate(45.000000, 148.000000)">
                <g id="s">
                    <g id="工作日志-弹窗背景-总赞数">
                        <mask id="mask-3" fill="white">
                            <use xlink:href="#path-2"></use>
                        </mask>
                        <use id="Mask" fill="url(#linearGradient-1)" xlink:href="#path-2"></use>
                        <polygon id="Shape" fill="url(#linearGradient-4)" fill-rule="nonzero" opacity="0.0672098217" mask="url(#mask-3)" points="125 -372 214.318481 -53.4410523 461 -53.4410523 183.340759 143.440096 342.65924 462 135 265.117895 -72.6600089 462 86.6592402 143.440096 -191 -53.4410523 55.6807502 -53.4410523"></polygon>
                        <polygon id="Shape" fill="url(#linearGradient-5)" fill-rule="nonzero" opacity="0.125357143" mask="url(#mask-3)" points="134.5 -362 177.818278 -43.4410523 328 -43.4410523 164.590861 153.440096 247.909139 472 134.5 275.117895 21.0904416 472 104.409139 153.440096 -59 -43.4410523 91.1813025 -43.4410523"></polygon>
                        <rect id="Rectangle-13" fill="#FFFFFF" opacity="0.101729911" mask="url(#mask-3)" transform="translate(119.656854, 130.000000) rotate(45.000000) translate(-119.656854, -130.000000) " x="116.656854" y="125" width="6" height="10"></rect>
                        <rect id="Rectangle-13" fill="#FFFFFF" opacity="0.354464286" mask="url(#mask-3)" transform="translate(148.914214, 119.257359) rotate(45.000000) translate(-148.914214, -119.257359) " x="148.414214" y="118.464466" width="1" height="1.58578644"></rect>
                        <rect id="Rectangle-13" fill="#FFFFFF" opacity="0.206305804" mask="url(#mask-3)" transform="translate(102.828427, 115.171573) rotate(45.000000) translate(-102.828427, -115.171573) " x="101.328427" y="112.671573" width="3" height="5"></rect>
                        <rect id="Rectangle-13" fill="#FFFFFF" opacity="0.15" mask="url(#mask-3)" transform="translate(71.121320, 100.464466) rotate(45.000000) translate(-71.121320, -100.464466) " x="70.1213203" y="98.4644661" width="2" height="4"></rect>
                        <rect id="Rectangle-13" fill="#FFFFFF" opacity="0.3484375" mask="url(#mask-3)" transform="translate(175.121320, 104.464466) rotate(45.000000) translate(-175.121320, -104.464466) " x="174.12132" y="102.464466" width="2" height="4"></rect>
                        <rect id="Rectangle-13" fill="#FFFFFF" opacity="0.101729911" mask="url(#mask-3)" transform="translate(191.889087, 98.232233) rotate(45.000000) translate(-191.889087, -98.232233) " x="189.889087" y="94.732233" width="4" height="7"></rect>
                    </g>
                </g>
            </g>
        </g>
    </g>
</svg>