<?xml version="1.0" encoding="UTF-8"?>
<svg width="23px" height="25px" viewBox="0 0 23 25" version="1.1" xmlns="http://www.w3.org/2000/svg" xmlns:xlink="http://www.w3.org/1999/xlink">
    <!-- Generator: Sketch 50.2 (55047) - http://www.bohemiancoding.com/sketch -->
    <title>工作日志</title>
    <desc>Created with Sketch.</desc>
    <defs></defs>
    <g id="01工作台-签到" stroke="none" stroke-width="1" fill="none" fill-rule="evenodd">
        <g id="01002首页-签到" transform="translate(-48.000000, -208.000000)">
            <g id="Group-10" transform="translate(0.000000, 159.000000)">
                <g id="Group-4" transform="translate(29.000000, 48.000000)">
                    <g id="工作日志" transform="translate(15.000000, 0.000000)">
                        <rect id="Rectangle-4" fill="#D8D8D8" opacity="0" x="0" y="0" width="30" height="30"></rect>
                        <g id="Group" transform="translate(4.000000, 1.000000)">
                            <path d="M13.8712871,2 L13.8712871,9 L21,9 L21,25 L0,25 L0,2 L13.8712871,2 Z M20.9574551,2 L21,2 L21,2.04212782 L20.9574551,2 Z M3.94117647,10.1764706 L3.94117647,12.1764706 L7.94117647,12.1764706 L7.94117647,10.1764706 L3.94117647,10.1764706 Z M3.94117647,14.1764706 L3.94117647,16.1764706 L9.94117647,16.1764706 L9.94117647,14.1764706 L3.94117647,14.1764706 Z M3.94117647,18.1764706 L3.94117647,20.1764706 L12.1764706,20.1764706 L12.1764706,18.1764706 L3.94117647,18.1764706 Z" id="Combined-Shape" fill="#02BA9E"></path>
                            <polygon id="Shape" fill="#80DCCE" points="16 0 23 7 16 7"></polygon>
                        </g>
                    </g>
                </g>
            </g>
        </g>
    </g>
</svg>