<?xml version="1.0" encoding="UTF-8"?>
<svg width="25px" height="23px" viewBox="0 0 25 23" version="1.1" xmlns="http://www.w3.org/2000/svg" xmlns:xlink="http://www.w3.org/1999/xlink">
    <!-- Generator: Sketch 50.2 (55047) - http://www.bohemiancoding.com/sketch -->
    <title>每年十励</title>
    <desc>Created with Sketch.</desc>
    <defs></defs>
    <g id="01工作台-签到" stroke="none" stroke-width="1" fill="none" fill-rule="evenodd">
        <g id="01002首页-签到" transform="translate(-288.000000, -333.000000)">
            <g id="Group-10" transform="translate(0.000000, 159.000000)">
                <g id="Group-4" transform="translate(271.000000, 168.000000)">
                    <g id="每年十励" transform="translate(15.000000, 0.000000)">
                        <rect id="Rectangle-4" fill="#FFACAD" opacity="0" x="0" y="0" width="30" height="30"></rect>
                        <g id="Group-11" transform="translate(2.000000, 6.000000)">
                            <rect id="Combined-Shape" fill="#FF5658" fill-rule="nonzero" x="0" y="0" width="21" height="17"></rect>
                            <rect id="Path" fill="#FF5658" x="0" y="0" width="3" height="23"></rect>
                            <rect id="Path" fill-opacity="0.5" fill="#FF5E60" x="14" y="2" width="11" height="17"></rect>
                            <path d="M13.2233197,11.9572217 C13.2004636,11.9572217 13.1776075,11.9528684 13.1557137,11.94392 L10.6396143,10.9201704 L8.12351499,11.94392 C8.06577318,11.9673794 8.00009188,11.9591565 7.94980838,11.9226372 C7.8992843,11.8858761 7.87137576,11.8256555 7.87570639,11.7630164 L8.06673555,9.04124041 L6.32076758,6.95238493 C6.28082949,6.9044987 6.26807818,6.8391993 6.28732545,6.77970428 C6.30633213,6.72020927 6.35469089,6.67474153 6.41531979,6.65974685 L9.04930867,6.00119024 L10.4861174,3.68644718 C10.5522799,3.58027518 10.7262271,3.58027518 10.7923896,3.68644718 L12.2291982,6.00119024 L14.8631871,6.65974685 C14.923816,6.67498338 14.9721748,6.72020927 14.9911815,6.77970428 C15.0104287,6.8391993 14.9976774,6.9044987 14.9577393,6.95238493 L13.2117714,9.04124041 L13.4028005,11.7630164 C13.4073718,11.8254137 13.3792226,11.8856342 13.3286985,11.9226372 C13.2981435,11.9453711 13.2608519,11.9572217 13.2233197,11.9572217 Z" id="Shape" fill="#FFFFFF"></path>
                        </g>
                    </g>
                </g>
            </g>
        </g>
    </g>
</svg>