<?xml version="1.0" encoding="UTF-8"?>
<svg width="79px" height="76px" viewBox="0 0 79 76" version="1.1" xmlns="http://www.w3.org/2000/svg" xmlns:xlink="http://www.w3.org/1999/xlink">
    <!-- Generator: Sketch 50.2 (55047) - http://www.bohemiancoding.com/sketch -->
    <title>断开链接</title>
    <desc>Created with Sketch.</desc>
    <defs></defs>
    <g id="07缺省页（3）" stroke="none" stroke-width="1" fill="none" fill-rule="evenodd">
        <g id="07001断开链接" transform="translate(-141.000000, -189.000000)">
            <g id="断开链接" transform="translate(136.000000, 177.000000)">
                <rect id="Rectangle-3" fill="#F4F4F4" opacity="0" x="0" y="0" width="88" height="88"></rect>
                <ellipse id="Oval-9" fill="#F8F8F9" cx="44" cy="83.5" rx="27" ry="4.5"></ellipse>
                <path d="M45.5348522,67.8828502 C45.555448,67.9073195 45.5497989,67.894303 53.5009577,59.3410719 C50.8631956,57.8914238 48.507251,57 45.2772073,57 C41.987845,57 39.671258,58.0518487 37,59.5513968 C37.1348682,59.4814836 45.5470394,67.8890183 45.5348522,67.8828502 Z" id="Oval-9" fill="#F6F6F7" fill-rule="nonzero"></path>
                <path d="M22,44.4297627 L31.1900177,53.5359471 C34.8308708,49.9283067 39.7227534,47.8780895 44.9750442,47.8780895 C50.2273351,47.8780895 55.1192177,49.9283067 58.7600708,53.5359471 C67.943855,44.4844677 58.7662091,53.5266224 67.9500885,44.4297627 C62.0702619,38.6035732 53.9473571,35 44.9750442,35 C36.0027314,35 27.8798266,38.6035732 22,44.4297627 Z" id="Oval-9" fill="#E8E9EC" fill-rule="nonzero"></path>
                <path d="M5,28.0305966 L14.1900177,37.136781 C22.0686955,29.3299742 32.6910323,24.8780895 44.0575752,24.8780895 C55.4241182,24.8780895 66.0464549,29.3299742 73.9251327,37.136781 C83.0654668,28.0518473 73.9524152,37.1301498 83.1151504,28.0305966 C73.1194453,18.1260744 59.3105071,12 44.0575752,12 C28.8046433,12 14.9957052,18.1260744 5,28.0305966 Z" id="Oval-9" fill="#CCCED7" fill-rule="nonzero"></path>
                <path d="M54.8592556,62 C56.2258185,62 57.3336367,60.8921818 57.3336367,59.5256189 C57.3336367,58.1590559 56.2258185,57.0512378 54.8592556,57.0512378 C53.4926926,57.0512378 52.3848745,58.1590559 52.3848745,59.5256189 C52.3848745,60.8921818 53.4926926,62 54.8592556,62 Z M54.8592556,64 C52.3881231,64 50.3848745,61.9967513 50.3848745,59.5256189 C50.3848745,57.0544864 52.3881231,55.0512378 54.8592556,55.0512378 C57.330388,55.0512378 59.3336367,57.0544864 59.3336367,59.5256189 C59.3336367,61.9967513 57.330388,64 54.8592556,64 Z M54.8213876,38 C54.7650331,38 54.7086912,38.0016885 54.6524378,38.0050632 C53.097074,38.0983716 51.9118439,39.4348844 52.0051523,40.9902482 L52.704712,52.6512594 C52.7718891,53.7710385 53.6995952,54.6447582 54.8213876,54.6447582 C55.9431799,54.6447582 56.8708861,53.7710385 56.9380631,52.6512594 L57.6376229,40.9902482 C57.6409976,40.9339949 57.6426861,40.877653 57.6426861,40.8212985 C57.6426861,39.2631384 56.3795477,38 54.8213876,38 Z M54.8213876,36 C57.4841172,36 59.6426861,38.1585689 59.6426861,40.8212985 C59.6426861,40.9176024 59.6398006,41.0138846 59.6340336,41.1100156 L58.9344739,52.7710267 C58.8039366,54.9469616 57.0012345,56.6447582 54.8213876,56.6447582 C52.6415407,56.6447582 50.8388386,54.9469616 50.7083013,52.7710267 L50.0087416,41.1100156 C49.8492875,38.4520646 51.8747195,36.1681065 54.5326705,36.0086525 C54.6288015,36.0028855 54.7250837,36 54.8213876,36 Z" id="Combined-Shape" fill="#FAFAFA" fill-rule="nonzero"></path>
                <path d="M54.8592556,62 C53.4926926,62 52.3848745,60.8921818 52.3848745,59.5256189 C52.3848745,58.1590559 53.4926926,57.0512378 54.8592556,57.0512378 C56.2258185,57.0512378 57.3336367,58.1590559 57.3336367,59.5256189 C57.3336367,60.8921818 56.2258185,62 54.8592556,62 Z M54.8213876,38 C56.3795477,38 57.6426861,39.2631384 57.6426861,40.8212985 C57.6426861,40.877653 57.6409976,40.9339949 57.6376229,40.9902482 L56.9380631,52.6512594 C56.8708861,53.7710385 55.9431799,54.6447582 54.8213876,54.6447582 C53.6995952,54.6447582 52.7718891,53.7710385 52.704712,52.6512594 L52.0051523,40.9902482 C51.9118439,39.4348844 53.097074,38.0983716 54.6524378,38.0050632 C54.7086912,38.0016885 54.7650331,38 54.8213876,38 Z" id="Combined-Shape" fill="#DCDDE3"></path>
            </g>
        </g>
    </g>
</svg>