<?xml version="1.0" encoding="UTF-8"?>
<svg width="22px" height="27px" viewBox="0 0 22 27" version="1.1" xmlns="http://www.w3.org/2000/svg" xmlns:xlink="http://www.w3.org/1999/xlink">
    <!-- Generator: Sketch 50.2 (55047) - http://www.bohemiancoding.com/sketch -->
    <title>干部信息库</title>
    <desc>Created with Sketch.</desc>
    <defs></defs>
    <g id="01工作台-签到" stroke="none" stroke-width="1" fill="none" fill-rule="evenodd">
        <g id="01002首页-签到" transform="translate(-49.000000, -449.000000)">
            <g id="Group-10" transform="translate(0.000000, 159.000000)">
                <g id="Group-4" transform="translate(22.000000, 290.000000)">
                    <g id="干部信息库" transform="translate(23.000000, 0.000000)">
                        <g id="Group" transform="translate(4.000000, 0.000000)">
                            <rect id="Shape" fill-opacity="0.5" fill="#A045D3" fill-rule="nonzero" x="5" y="19" width="12" height="8"></rect>
                            <polygon id="Path" fill="#FFFFFF" points="12.3333334 12 15 20.1309091 11 24.1963636 7 20.1309091 9.66666669 12"></polygon>
                            <path d="M11.0732232,21 C5.23988982,21 0.573223169,16.3333333 0.573223169,10.5 C0.573223169,4.6666667 5.23988987,0 11.0732232,0 C16.9065565,0 21.5732232,4.66666665 21.5732232,10.5 C21.5732232,16.3333334 16.9065565,21 11.0732232,21 Z" id="Path" fill="#A83DE4"></path>
                            <path d="M9,16 L13,16 C12.799012,16.9211794 11.9847533,17.6031573 11,17.6031573 C10.0152467,17.6031573 9.20098796,16.9211794 9,16 Z" id="Combined-Shape" fill="#FFFFFF"></path>
                        </g>
                        <rect id="Rectangle-4" fill="#D8D8D8" opacity="0" x="0" y="0" width="30" height="30"></rect>
                    </g>
                </g>
            </g>
        </g>
    </g>
</svg>