<?xml version="1.0" encoding="UTF-8"?>
<svg width="22px" height="23px" viewBox="0 0 22 23" version="1.1" xmlns="http://www.w3.org/2000/svg" xmlns:xlink="http://www.w3.org/1999/xlink">
    <!-- Generator: Sketch 50.2 (55047) - http://www.bohemiancoding.com/sketch -->
    <title>工作周表</title>
    <desc>Created with Sketch.</desc>
    <defs></defs>
    <g id="01工作台-签到" stroke="none" stroke-width="1" fill="none" fill-rule="evenodd">
        <g id="01002首页-签到" transform="translate(-171.000000, -210.000000)">
            <g id="Group-10" transform="translate(0.000000, 159.000000)">
                <g id="Group-4" transform="translate(151.000000, 48.000000)">
                    <g id="工作日志" transform="translate(16.000000, 0.000000)">
                        <g id="工作周表">
                            <rect id="Rectangle-4" fill="#D8D8D8" opacity="0" x="0" y="0" width="30" height="30"></rect>
                            <g id="Group-8" transform="translate(4.000000, 3.000000)">
                                <polygon id="Combined-Shape" fill="#FF8548" points="0 3 22 3 22 22.3967661 1.72432815e-16 22.3967661"></polygon>
                                <rect id="Rectangle-8" fill="#FFFFFF" x="3.42857143" y="13.5027678" width="4" height="1.6839995"></rect>
                                <polygon id="Rectangle-8" fill="#FFFFFF" points="3 7 19 7 19 11 3 11"></polygon>
                                <rect id="Rectangle-8" fill-opacity="0.5" fill="#FF8548" x="3" y="0" width="16" height="3"></rect>
                                <rect id="Rectangle-8" fill="#FFFFFF" x="3.42857143" y="16.7424132" width="4" height="1.6839995"></rect>
                                <rect id="Rectangle-8" fill="#FFFFFF" x="9.04092536" y="13.5027678" width="4" height="1.6839995"></rect>
                                <rect id="Rectangle-8" fill="#FFFFFF" x="9.08067364" y="16.7424132" width="4" height="1.6839995"></rect>
                                <rect id="Rectangle-8" fill="#FFFFFF" x="14.4285714" y="13.5027678" width="4" height="1.6839995"></rect>
                                <rect id="Rectangle-8" fill="#FFFFFF" x="14.4285714" y="16.7424132" width="4" height="1.6839995"></rect>
                            </g>
                        </g>
                    </g>
                </g>
            </g>
        </g>
    </g>
</svg>