<?xml version="1.0" standalone="no"?>
<!DOCTYPE svg PUBLIC "-//W3C//DTD SVG 1.1//EN" "http://www.w3.org/Graphics/SVG/1.1/DTD/svg11.dtd" >
<!--
2013-9-30: Created.
-->
<svg>
<metadata>
Created by iconfont
</metadata>
<defs>

<font id="szom" horiz-adv-x="1024" >
  <font-face
    font-family="szom"
    font-weight="500"
    font-stretch="normal"
    units-per-em="1024"
    ascent="896"
    descent="-128"
  />
    <missing-glyph />
    
    <glyph glyph-name="x" unicode="x" horiz-adv-x="1001"
d="M281 543q-27 -1 -53 -1h-83q-18 0 -36.5 -6t-32.5 -18.5t-23 -32t-9 -45.5v-76h912v41q0 16 -0.5 30t-0.5 18q0 13 -5 29t-17 29.5t-31.5 22.5t-49.5 9h-133v-97h-438v97zM955 310v-52q0 -23 0.5 -52t0.5 -58t-10.5 -47.5t-26 -30t-33 -16t-31.5 -4.5q-14 -1 -29.5 -0.5
t-29.5 0.5h-32l-45 128h-439l-44 -128h-29h-34q-20 0 -45 1q-25 0 -41 9.5t-25.5 23t-13.5 29.5t-4 30v167h911zM163 247q-12 0 -21 -8.5t-9 -21.5t9 -21.5t21 -8.5q13 0 22 8.5t9 21.5t-9 21.5t-22 8.5zM316 123q-8 -26 -14 -48q-5 -19 -10.5 -37t-7.5 -25t-3 -15t1 -14.5
t9.5 -10.5t21.5 -4h37h67h81h80h64h36q23 0 34 12t2 38q-5 13 -9.5 30.5t-9.5 34.5q-5 19 -11 39h-368zM336 498v228q0 11 2.5 23t10 21.5t20.5 15.5t34 6h188q31 0 51.5 -14.5t20.5 -52.5v-227h-327z" />
    

    
    <glyph glyph-name="yanjing" unicode="&#59056;" d="M957.025121 383.823991c0.107447 18.962887-7.498788 32.92897-7.93267 33.471322-60.314691 115.142413-172.684968 189.040471-177.357384 192.029548-80.529081 52.978609-168.012551 79.930447-259.626086 80.093153l0 0.597611c-91.830475-0.162706-179.206498-27.060309-259.842003-80.148411-4.564969-2.988054-117.151164-76.887135-177.248913-191.975313-0.434905-0.597611-8.150634-14.508435-8.042163-33.471322l-0.10847 0c-0.216941-19.126616 7.607258-33.200146 8.042163-33.744545 60.20622-115.14139 172.684968-189.039447 177.248913-192.028525 80.637552-53.061496 168.012551-79.903841 259.733533-80.120782l0-0.543376c91.831498 0.10847 179.313945 27.060309 259.951497 80.120782 4.672416 2.989077 117.042693 76.888158 177.357384 191.975313 0.433882 0.597611 8.150634 14.616906 7.93267 33.744545L957.025121 383.823991zM512.000512 217.060897c-92.15691 0-166.926824 74.714655-166.926824 166.9258 0 92.210122 74.768891 166.924777 166.926824 166.924777 92.263333 0 166.924777-74.714655 166.924777-166.924777C678.925289 291.775552 604.263845 217.060897 512.000512 217.060897z"  horiz-adv-x="1024" />

    
    <glyph glyph-name="guanbi" unicode="&#58991;" d="M512 390.93248m-431.83616 0a431.83616 431.83616 0 1 1 863.67232 0 431.83616 431.83616 0 1 1-863.67232 0ZM720.6912 234.4448l-52.20352-52.20352L512 338.72896l-156.48768-156.48768L303.3088 234.4448l156.4928 156.48768L303.3088 547.42016l52.16256 52.1984 156.5184-156.49792 156.49792 156.49792 52.20352-52.1984-156.50304-156.4928z"  horiz-adv-x="1024" />

    
    <glyph glyph-name="shaixuan" unicode="&#59034;" d="M816 832h-611.2c-60.8 0-108.8-48-108.8-108.8 0-25.6 9.6-51.2 25.6-70.4 0-3.2 3.2-3.2 3.2-6.4l240-240v-252.8c0-9.6 3.2-16 9.6-22.4l217.6-185.6c6.4-3.2 12.8-6.4 19.2-6.4 9.6 0 16 3.2 22.4 9.6 6.4 6.4 6.4 16 6.4 22.4v425.6l259.2 252.8c16 19.2 25.6 44.8 25.6 70.4 0 64-48 112-108.8 112zM851.2 691.2s-3.2-3.2 0 0l-259.2-259.2c-6.4-6.4-9.6-12.8-9.6-22.4v-377.6l-156.8 131.2v252.8c0 9.6-3.2 16-9.6 22.4l-246.4 252.8c-9.6 9.6-12.8 19.2-12.8 32 0 25.6 22.4 48 48 48h611.2c25.6 0 48-22.4 48-48 0-12.8-6.4-22.4-12.8-32z"  horiz-adv-x="1024" />

    
    <glyph glyph-name="icon-eye-close" unicode="&#58906;" d="M877.9000001 598.91250029C758.1624998 449.99999971 638.52499971 377.75000009999997 518.72500039 377.75000009999997c-120.2625 0-244.8500001 72.74999971-373.56250078 222.28750019a43.75000019 43.75000019 0 1 1-66.3249999-57.07500029C222.68750029 375.83750010000006 369.26249961 290.24999971 518.71249971 290.24999971c149.9500002 0 292.48750019 86.0749998 427.37500019 253.83750029a43.75000019 43.75000019 0 0 1-68.1874998 54.82500029zM205.02500029 421.4000001l-83.33750039-96.42499981a31.25000039 31.25000039 0 1 1 47.28750029-40.87500029l83.33749952 96.4249998a31.25000039 31.25000039 0 0 1-47.28749942 40.8750003zM373.3499999 308.24999971l-33.33750029-133.33749961a31.25000039 31.25000039 0 0 1 60.6375-15.16250039l33.33750029 133.33750048a31.25000039 31.25000039 0 0 1-60.6375 15.16249952zM615.3374999 302.79999961l46.87499971-133.32499981a31.25000039 31.25000039 0 0 1 58.95 20.72500049l-46.87499971 133.32499981a31.25000039 31.25000039 0 0 1-58.95-20.72500049zM785.4374999 416.37500039l96.42499981-96.43750049a31.25000039 31.25000039 0 0 1 44.20000019 44.2000002l-96.4249998 96.4249998a31.25000039 31.25000039 0 0 1-44.2000002-44.20000019z"  horiz-adv-x="1024" />

    
    <glyph glyph-name="jiahaoyou" unicode="&#58880;" d="M312.888889 810.666667v-227.555556a170.666667 170.666667 0 1 1 341.333333 0v227.555556h-341.333333zM284.444444 896h398.222223a56.888889 56.888889 0 0 0 56.888889-56.888889v-256a256 256 0 1 0-512 0V839.111111a56.888889 56.888889 0 0 0 56.888888 56.888889zM85.333333-42.666667h796.444445V99.555556a142.222222 142.222222 0 0 1-142.222222 142.222222H227.555556A142.222222 142.222222 0 0 1 85.333333 99.555556v-142.222223zM56.888889-128a56.888889 56.888889 0 0 0-56.888889 56.888889v170.666667a227.555556 227.555556 0 0 0 227.555556 227.555555h512a227.555556 227.555556 0 0 0 227.555555-227.555555v-170.666667a56.888889 56.888889 0 0 0-56.888889-56.888889H56.888889zM1098.524444 526.222222c25.713778 0 46.535111-19.114667 46.535112-42.666666s-20.821333-42.666667-46.535112-42.666667h-78.563555v-99.555556c0-23.552-20.821333-42.666667-46.592-42.666666-25.713778 0-46.535111 19.114667-46.535111 42.666666V440.888889h-83.854222C817.265778 440.888889 796.444444 460.003556 796.444444 483.555556s20.821333 42.666667 46.535112 42.666666h83.854222V625.777778c0 23.552 20.821333 42.666667 46.535111 42.666666 25.770667 0 46.592-19.114667 46.592-42.666666V526.222222h78.563555z"  horiz-adv-x="1194" />

    
    <glyph glyph-name="sousuo" unicode="&#58881;" d="M767.089778 68.608a42.666667 42.666667 0 0 0-14.222222 70.087111 384 384 0 1 1-106.268445-74.012444 42.666667 42.666667 0 0 0 36.295111-77.255111 469.333333 469.333333 0 1 0 161.336889 124.700444l153.031111-153.031111a42.666667 42.666667 0 0 0-60.302222-60.359111l-169.870222 169.870222z"  horiz-adv-x="1024" />

    
    <glyph glyph-name="tongxunlu" unicode="&#58883;" d="M102.4 281.6V486.4H25.6a25.6 25.6 0 0 0-25.6 25.6v204.8A25.6 25.6 0 0 0 25.6 742.4H102.4V844.8a51.2 51.2 0 0 0 51.2 51.2h819.2a51.2 51.2 0 0 0 51.2-51.2v-921.6a51.2 51.2 0 0 0-51.2-51.2H153.6a51.2 51.2 0 0 0-51.2 51.2v102.4H25.6a25.6 25.6 0 0 0-25.6 25.6v204.8a25.6 25.6 0 0 0 25.6 25.6H102.4z m230.4 153.6a25.6 25.6 0 0 1-25.6-25.6v-51.2a25.6 25.6 0 0 1 25.6-25.6h460.8a25.6 25.6 0 0 1 25.6 25.6v51.2a25.6 25.6 0 0 1-25.6 25.6h-460.8z m0 256a25.6 25.6 0 0 1-25.6-25.6v-51.2a25.6 25.6 0 0 1 25.6-25.6h460.8a25.6 25.6 0 0 1 25.6 25.6v51.2a25.6 25.6 0 0 1-25.6 25.6h-460.8z"  horiz-adv-x="1024" />

    
    <glyph glyph-name="shanchu" unicode="&#58884;" d="M892.011789 676.540632v-658.162527a107.789474 107.789474 0 0 0-107.789473-107.789473H232.555789a107.789474 107.789474 0 0 0-107.789473 107.789473V676.540632H26.947368a26.947368 26.947368 0 0 0-26.947368 26.947368v26.947368a26.947368 26.947368 0 0 0 26.947368 26.947369h970.159158a26.947368 26.947368 0 0 0 26.947369-26.947369v-26.947368a26.947368 26.947368 0 0 0-26.947369-26.947368h-105.094737z m-72.757894 0h-614.4v-627.496421a53.894737 53.894737 0 0 1 53.894737-53.894737h506.610526a53.894737 53.894737 0 0 1 53.894737 53.894737V676.540632z m-197.200842-127.029895c22.366316 0 40.421053-15.521684 40.421052-34.654316V168.421053c0-19.132632-18.054737-34.654316-40.421052-34.654316-22.312421 0-40.421053 15.521684-40.421053 34.654316v346.543158c0 19.078737 18.108632 34.600421 40.421053 34.600421z m-215.578948 0c22.312421 0 40.421053-15.521684 40.421053-34.654316V168.421053c0-19.132632-18.108632-34.654316-40.421053-34.654316s-40.421053 15.521684-40.421052 34.654316v346.543158c0 19.078737 18.108632 34.600421 40.421052 34.600421zM368.316632 896h287.474526a26.947368 26.947368 0 0 0 26.947368-26.947368V842.105263a26.947368 26.947368 0 0 0-26.947368-26.947368H368.316632a26.947368 26.947368 0 0 0-26.947369 26.947368V869.052632a26.947368 26.947368 0 0 0 26.947369 26.947368z"  horiz-adv-x="1024" />

    
    <glyph glyph-name="gongzuotai" unicode="&#58885;" d="M51.2 896h358.4a51.2 51.2 0 0 0 51.2-51.2v-358.4a51.2 51.2 0 0 0-51.2-51.2H51.2a51.2 51.2 0 0 0-51.2 51.2V844.8a51.2 51.2 0 0 0 51.2 51.2z m563.2 0h358.4a51.2 51.2 0 0 0 51.2-51.2v-358.4a51.2 51.2 0 0 0-51.2-51.2h-358.4a51.2 51.2 0 0 0-51.2 51.2V844.8a51.2 51.2 0 0 0 51.2 51.2zM51.2 332.8h358.4a51.2 51.2 0 0 0 51.2-51.2v-358.4a51.2 51.2 0 0 0-51.2-51.2H51.2a51.2 51.2 0 0 0-51.2 51.2v358.4a51.2 51.2 0 0 0 51.2 51.2z m563.2 0h358.4a51.2 51.2 0 0 0 51.2-51.2v-358.4a51.2 51.2 0 0 0-51.2-51.2h-358.4a51.2 51.2 0 0 0-51.2 51.2v358.4a51.2 51.2 0 0 0 51.2 51.2z"  horiz-adv-x="1024" />

    
    <glyph glyph-name="xuanze" unicode="&#58886;" d="M512-128a512 512 0 1 0 0 1024 512 512 0 0 0 0-1024z m257.616842 737.980632l-324.338526-336.896-190.895158 198.332631a53.894737 53.894737 0 1 1-77.608421-74.752l229.699368-238.645895a53.894737 53.894737 0 0 1 77.662316 0l363.088842 377.263158a53.894737 53.894737 0 0 1-77.608421 74.698106z"  horiz-adv-x="1024" />

    
    <glyph glyph-name="daoru" unicode="&#58887;" d="M938.646588 270.516706v-269.733647a42.827294 42.827294 0 0 0-42.285176-43.429647H127.698824a42.224941 42.224941 0 0 0-42.285177 42.285176V768.301176c0 23.009882 19.456 42.285176 42.767059 42.285177h336.594823a42.646588 42.646588 0 0 1 0 85.353412H128.060235A128.301176 128.301176 0 0 1 0 768.361412V-0.301176C0-70.896941 57.103059-128 127.638588-128H896.301176C967.077647-128 1024-70.174118 1024 0.783059v269.733647a42.646588 42.646588 0 0 1-85.353412 0zM437.187765 321.355294C443.813647 649.938824 665.479529 896 978.703059 896c24.997647 0 45.296941-20.48 45.296941-45.658353a45.477647 45.477647 0 0 0-45.296941-45.718588c-255.457882 0-436.946824-194.921412-450.319059-466.281412l41.863529 42.164706a45.296941 45.296941 0 0 0 63.728942-0.240941 45.417412 45.417412 0 0 0 0.301176-64.331294L511.759059 192.451765a45.357176 45.357176 0 0 0-37.466353-19.215059 45.357176 45.357176 0 0 0-37.406118 19.215059L314.368 315.934118a45.417412 45.417412 0 0 0 0.301176 64.331294 45.296941 45.296941 0 0 0 63.728942 0.301176l58.789647-59.271529z"  horiz-adv-x="1024" />

    
    <glyph glyph-name="wode" unicode="&#58888;" d="M341.333333 896h390.095238a48.761905 48.761905 0 0 0 48.761905-48.761905v-243.809524A243.809524 243.809524 0 0 0 292.571429 603.428571V847.238095a48.761905 48.761905 0 0 0 48.761904 48.761905zM125.025524-128C56.07619-128 0-72.606476 0-4.632381v143.555048c0 24.673524 18.822095 45.738667 43.739429 49.249523 0.292571 0 158.086095 39.740952 473.380571 119.369143a110.201905 110.201905 0 0 0 54.905905-0.292571l455.631238-118.979048c26.282667-3.462095 45.104762-24.673524 45.104762-49.347047v-143.506286C1072.761905-72.606476 1016.685714-128 947.736381-128H125.025524z"  horiz-adv-x="1073" />

    
    <glyph glyph-name="dianzandianji" unicode="&#58889;" d="M601.7024 885.76c5.3248 0 10.56768-0.4096 14.49984-1.024 77.0048-8.192 131.76832-79.4624 124.928-157.24544-3.23584-36.74112-7.65952-71.2704-12.94336-103.30112-3.15392-19.12832-6.47168-36.57728-9.8304-52.30592h100.7616c94.12608 0 165.888-85.07392 151.9616-179.4048l-47.5136-323.50208c-15.7696-107.23328-106.0864-186.73664-212.74624-186.73664H143.40096C92.24192-117.76 51.2-75.73504 51.2-24.20736V478.45376c0 51.6096 41.12384 93.55264 92.16 93.55264h123.2896c41.49248 0 94.78144 3.19488 106.7008 9.216 27.0336 13.5168 64.1024 58.49088 73.728 93.14304 2.12992 7.49568 5.03808 20.0704 8.56064 36.29056l2.00704 9.33888a3295.76448 3295.76448 0 0 1 11.42784 56.68864C480.8704 840.17152 536.86272 885.76 601.7024 885.76z"  horiz-adv-x="1024" />

    
    <glyph glyph-name="xierizhi" unicode="&#58890;" d="M886.499556 248.376889a40.277333 40.277333 0 0 0 80.611555 0v-254.748445C967.111111-73.386667 913.351111-128 846.563556-128H120.604444A120.490667 120.490667 0 0 0 0-7.452444V718.506667A121.173333 121.173333 0 0 0 120.945778 839.111111h317.952a40.277333 40.277333 0 0 0 0-80.611555H120.945778c-21.959111 0-40.391111-18.204444-40.391111-39.936V-7.395556c0-22.129778 17.863111-39.936 39.992889-39.936H846.506667c22.016 0 39.936 18.204444 39.936 41.016889v254.748445z m24.917333 567.182222l40.220444-40.220444a113.777778 113.777778 0 0 0 0-160.938667L509.155556 171.918222a113.777778 113.777778 0 0 0-160.938667 0l-40.220445 40.220445a113.777778 113.777778 0 0 0 0 160.938666l442.481778 442.481778a113.777778 113.777778 0 0 0 160.938667 0z m-60.302222-60.302222a28.444444 28.444444 0 0 1-40.277334 0l-442.481777-442.538667a28.444444 28.444444 0 0 1 0-40.220444l40.220444-40.220445a28.444444 28.444444 0 0 1 40.220444 0l442.481778 442.481778a28.444444 28.444444 0 0 1 0 40.220445l-40.220444 40.220444z"  horiz-adv-x="1024" />

    
    <glyph glyph-name="xiaoxi" unicode="&#58891;" d="M1009.825684 421.618526c-4.257684-79.386947-19.078737-154.300632-42.199579-211.806315a277.989053 277.989053 0 0 0-58.799158-91.136 282.031158 282.031158 0 0 0-79.602526-56.535579c-48.613053-23.444211-99.813053-34.492632-165.995789-40.96a1532.981895 1532.981895 0 0 0-150.258527-7.868632c-21.018947 0-39.882105 0.377263-59.553684 1.239579l-168.474947-118.568421a57.775158 57.775158 0 0 0-33.253053-10.509474 58.368 58.368 0 0 0-57.882947 52.493474l-13.958737 131.826526c-19.563789 10.778947-37.187368 23.282526-53.301895 37.941895a275.402105 275.402105 0 0 0-70.170947 102.076632c-23.174737 57.505684-37.941895 132.419368-42.199579 211.806315a495.831579 495.831579 0 0 0 0 52.601263c4.257684 79.386947 19.078737 154.300632 42.199579 211.806316a278.042947 278.042947 0 0 0 58.799158 91.136 281.977263 281.977263 0 0 0 79.602526 56.535579c48.613053 23.390316 99.813053 34.492632 165.995789 40.96A1533.143579 1533.143579 0 0 0 511.083789 882.526316c49.044211 0 98.196211-2.586947 152.144843-7.868632 66.236632-6.467368 117.490526-17.569684 165.995789-40.96a282.031158 282.031158 0 0 0 79.656421-56.535579c24.953263-25.546105 44.732632-56.266105 58.745263-91.136 23.174737-57.505684 37.995789-132.419368 42.253474-211.806316 0.916211-17.461895 0.916211-35.139368 0-52.601263zM447.164632 14.821053z m481.926736 455.087158c-3.772632 71.033263-16.922947 137.323789-36.486736 185.936842a197.254737 197.254737 0 0 1-41.606737 64.781473 201.350737 201.350737 0 0 1-56.912842 40.259369c-38.157474 18.378105-81.219368 27.701895-138.778948 33.306947a1453.002105 1453.002105 0 0 1-142.282105 7.491369c-46.349474 0-92.914526-2.425263-144.330105-7.491369-57.559579-5.605053-100.675368-14.928842-138.778948-33.306947-22.150737-10.725053-41.283368-24.252632-56.912842-40.259369a197.308632 197.308632 0 0 1-41.606737-64.835368c-19.563789-48.505263-32.714105-114.849684-36.486736-185.882947a414.989474 414.989474 0 0 1 0-43.978106c3.772632-71.033263 16.922947-137.323789 36.486736-185.936842 11.641263-28.887579 28.240842-53.140211 49.475369-72.434526 14.336-12.988632 30.342737-23.713684 49.259789-32.714105a50.768842 50.768842 0 0 0 28.402527-40.474948l11.641263-109.945263 141.743158 99.705263c11.425684 8.084211 25.114947 12.126316 39.073684 11.425684 20.641684-0.916211 40.259368-1.401263 60.038737-1.401263 46.349474 0 92.860632 2.425263 144.27621 7.491369 57.559579 5.605053 100.621474 14.928842 138.778948 33.306947 22.150737 10.671158 41.283368 24.252632 56.912842 40.205474a197.254737 197.254737 0 0 1 41.606737 64.835368c19.563789 48.613053 32.714105 114.903579 36.486736 185.936842 0.808421 14.551579 0.808421 29.372632 0 43.978106l40.421053 2.155789-40.421053-2.155789z"  horiz-adv-x="1024" />

    
    <glyph glyph-name="ganbudongtai" unicode="&#58892;" d="M620.332709-128a24.202602 24.202602 0 0 0-23.364819 17.779604l-124.457228 452.402488L17.734457 468.966493a24.202602 24.202602 0 0 0-2.327173 45.891858L991.004872 894.327228a24.202602 24.202602 0 0 0 31.370296-31.370296l-379.468878-975.551045a24.202602 24.202602 0 0 0-22.527037-15.405887z"  horiz-adv-x="1024" />

    
    <glyph glyph-name="fanhui" unicode="&#58893;" d="M736.6656-15.9744a38.4 38.4 0 1 0-54.9376-53.6576L254.1056 368.128a38.4 38.4 0 0 0 0.6656 54.272l430.592 420.3008a38.4 38.4 0 1 0 53.6064-54.9888L335.872 394.3424l400.7424-410.3168z"  horiz-adv-x="1024" />

    
    <glyph glyph-name="dianzanmoren" unicode="&#58894;" d="M601.7024 885.76c5.3248 0 10.56768-0.4096 14.49984-1.024 77.0048-8.192 131.76832-79.4624 124.928-157.24544-3.23584-36.74112-7.65952-71.2704-12.94336-103.30112-3.15392-19.12832-6.47168-36.57728-9.8304-52.30592h100.7616c94.12608 0 165.888-85.07392 151.9616-179.4048l-47.5136-323.50208c-15.7696-107.23328-106.0864-186.73664-212.74624-186.73664H143.40096C92.24192-117.76 51.2-75.73504 51.2-24.20736V478.45376c0 51.6096 41.12384 93.55264 92.16 93.55264h123.2896c41.49248 0 94.78144 3.19488 106.7008 9.216 27.0336 13.5168 64.1024 58.49088 73.728 93.14304 2.12992 7.49568 5.03808 20.0704 8.56064 36.29056l2.00704 9.33888a3295.76448 3295.76448 0 0 1 11.42784 56.68864C480.8704 840.17152 536.86272 885.76 601.7024 885.76z m-72.25344-120.4224a3137.00352 3137.00352 0 0 0-11.71456-58.04032l-2.048-9.6256a755.3024 755.3024 0 0 0-9.4208-39.81312c-14.336-51.32288-62.8736-110.30528-105.30816-131.52256-15.9744-8.06912-42.10688-11.8784-79.33952-14.09024-20.8896-1.2288-40.46848-1.6384-54.96832-1.6384H143.36c-16.7936 0-30.72-14.21312-30.72-32.1536v-502.66112c0-17.89952 13.88544-32.11264 30.72-32.11264h567.45984c75.89888 0 140.61568 56.9344 151.9616 134.22592l47.5136 323.54304c8.47872 57.5488-34.89792 108.9536-91.17696 108.9536H638.1568l11.63264 39.44448c1.024 3.39968 2.8672 10.48576 5.36576 21.13536 4.21888 18.0224 8.43776 39.15776 12.41088 63.20128a1329.5616 1329.5616 0 0 1 12.36992 98.7136c3.97312 45.30176-27.4432 86.17984-71.59808 90.9312a44.11392 44.11392 0 0 1-6.63552 0.49152c-35.51232 0-65.90464-24.73984-72.25344-58.9824z"  horiz-adv-x="1024" />

    
    <glyph glyph-name="gengduo" unicode="&#58895;" d="M111.709091 276.94545500000004c-60.509091 0-111.709091 46.545455-111.709091 107.054545s51.2 107.054545 111.709091 107.054545 111.709091-46.545455 111.709091-107.054545-46.545455-107.054545-111.709091-107.054545z m400.290909 0c-65.163636 0-111.709091 46.545455-111.709091 107.054545s46.545455 107.054545 111.709091 107.054545 111.709091-46.545455 111.709091-107.054545-46.545455-107.054545-111.709091-107.054545z m400.290909 0c-65.163636 0-111.709091 46.545455-111.709091 107.054545s51.2 107.054545 111.709091 107.054545c65.163636 0 111.709091-46.545455 111.709091-107.054545s-51.2-107.054545-111.709091-107.054545z"  horiz-adv-x="1024" />

    
    <glyph glyph-name="meizhouyili" unicode="&#58882;" d="M1024 820.148148h75.851852a37.925926 37.925926 0 0 0 37.925926-37.925926v-872.296296a37.925926 37.925926 0 0 0-37.925926-37.925926H37.925926a37.925926 37.925926 0 0 0-37.925926 37.925926V782.222222a37.925926 37.925926 0 0 0 37.925926 37.925926h75.851852v-56.888889a132.740741 132.740741 0 0 1 265.481481 0V820.148148h379.25926v-56.888889a132.740741 132.740741 0 0 1 265.481481 0V820.148148z m-606.814815-303.407407v-125.648593h163.195259L484.882963 61.62963h109.909333l113.739852 411.496296c5.537185 11.226074 5.537185 21.238519 0 29.961481-5.537185 8.760889-14.753185 13.274074-27.648 13.653334H417.185185zM891.259259 896A56.888889 56.888889 0 0 0 948.148148 839.111111v-75.851852a56.888889 56.888889 0 0 0-113.777778 0v75.851852A56.888889 56.888889 0 0 0 891.259259 896z m-644.74074 0A56.888889 56.888889 0 0 0 303.407407 839.111111v-75.851852a56.888889 56.888889 0 0 0-113.777777 0v75.851852A56.888889 56.888889 0 0 0 246.518519 896z"  horiz-adv-x="1137" />

    
    <glyph glyph-name="shezhi" unicode="&#58896;" d="M332.800256 377.4976c0-98.816 80.384-179.2 179.2-179.2s179.2 80.384 179.2 179.2-80.384 179.2-179.2 179.2-179.2-80.384-179.2-179.2z m272.5376-1.0752A93.44 93.44 0 0 0 512.000256 283.0848a93.44 93.44 0 0 0-93.3376 93.3376c0 51.456 41.8816 93.2864 93.3376 93.2864s93.3376-41.8304 93.3376-93.2864zM928.256256 654.336L530.944256 890.7264a36.9152 36.9152 0 0 1-37.888 0L95.744256 654.2848a39.3216 39.3216 0 0 1-18.944-33.792v-472.9344c0-13.9776 7.2192-26.88 18.944-33.8432l397.312-236.4928a37.0176 37.0176 0 0 1 37.888 0l397.312 236.4928a39.3216 39.3216 0 0 1 18.944 33.792V620.4928a39.3216 39.3216 0 0 1-18.944 33.8432z m-56.832-484.2496L512.000256-43.8272l-359.424 213.9136V597.9136L512.000256 811.8272l359.424-213.9136v-427.8272z"  horiz-adv-x="1024" />

    
    <glyph glyph-name="gongzuorizhi" unicode="&#58897;" d="M969.284267-97.723733c0-12.834133-11.6736-23.2448-26.112-23.2448H107.9296c-14.404267 0-26.112 10.410667-26.112 23.2448V845.6192c0 12.834133 11.707733 23.278933 26.112 23.278933h608.3584a27.8528 27.8528 0 0 0 18.5344-6.7584l226.884267-232.721066a22.050133 22.050133 0 0 0 7.5776-16.520534v-710.621866zM707.3792 764.347733a17.066667 17.066667 0 0 1-29.149867-12.0832v-173.499733a17.066667 17.066667 0 0 1 17.066667-17.066667h173.533867a17.066667 17.066667 0 0 1 12.049066 29.115734l-173.499733 173.533866zM303.684267 493.431467a17.066667 17.066667 0 0 1-17.066667-17.066667v-34.133333a17.066667 17.066667 0 0 1 17.066667-17.066667h238.933333a17.066667 17.066667 0 0 1 17.066667 17.066667v34.133333a17.066667 17.066667 0 0 1-17.066667 17.066667h-238.933333z m0-341.333334a17.066667 17.066667 0 0 1-17.066667-17.066666v-34.133334a17.066667 17.066667 0 0 1 17.066667-17.066666h409.6a17.066667 17.066667 0 0 1 17.066666 17.066666v34.133334a17.066667 17.066667 0 0 1-17.066666 17.066666h-409.6z m0 170.666667a17.066667 17.066667 0 0 1-17.066667-17.066667v-34.133333a17.066667 17.066667 0 0 1 17.066667-17.066667h307.2a17.066667 17.066667 0 0 1 17.066666 17.066667v34.133333a17.066667 17.066667 0 0 1-17.066666 17.066667h-307.2z"  horiz-adv-x="1024" />

    
    <glyph glyph-name="ganbupingjia" unicode="&#58898;" d="M291.939097 110.063484c17.176774-9.447226 36.897032-14.864516 57.872516-14.864516a120.53471 120.53471 0 0 1 120.402581 120.435613 120.53471 120.53471 0 0 1-120.402581 120.40258 120.53471 120.53471 0 0 1-120.402581-120.40258c0-22.329806 6.110968-43.239226 16.714323-61.175742L83.637677-11.065806a13.212903 13.212903 0 0 1 0.099097-18.597162l26.425807-26.425806a13.146839 13.146839 0 0 1 18.762322 0.099097l163.014194 166.086193z m238.129548 320.082581c-51.860645 49.548387-80.400516 115.41471-80.433548 185.476129 0 70.094452 28.572903 135.960774 80.433548 185.542193L613.475097 881.730065c3.435355 3.303226 5.186065 5.252129 11.131871 4.855741 3.963871-0.231226 7.663484-2.312258 10.999742-6.243096l356.087742-339.901936c5.945806-5.516387 9.050839-11.792516 9.182967-18.828387 0.231226-10.570323-1.651613-14.071742-8.390193-20.48l-74.388645-71.019355c-51.860645-49.515355-120.699871-76.833032-193.998452-76.833032-73.331613 0-142.203871 27.317677-194.031484 76.899097zM21.239742-121.12929c-2.576516 2.675613-3.468387 6.738581-2.642581 12.155871l68.475871 612.451096 286.455742 162.716904c7.795613 3.072 12.651355 1.189161 14.600258-5.714581-3.138065-114.886194 27.747097-204.965161 92.721549-270.336 63.289806-63.653161 156.176516-101.07871 278.726193-112.34271 8.423226-0.759742 12.221935-4.129032 16.384-10.999742 2.741677-4.591484 2.741677-10.041806 0-16.350967l-92.820645-252.928-649.414194-122.318452c-5.747613-0.264258-9.909677 0.957935-12.486193 3.633548z"  horiz-adv-x="1024" />

    
    <glyph glyph-name="meiniansanli" unicode="&#58899;" d="M628.918857 743.862857h345.344c7.570286 0.548571 13.385143-1.206857 17.481143-5.266286 4.132571-4.059429 6.070857-9.947429 5.814857-17.664V91.794286c0.548571-10.532571-1.389714-18.212571-5.814857-23.04-4.388571-4.790857-11.593143-7.058286-21.577143-6.802286H550.582857a19.017143 19.017143 0 0 0-11.702857 4.681143 17.773714 17.773714 0 0 0-5.339429 11.117714l-23.113142 113.261714H141.787429v-284.489142a19.748571 19.748571 0 0 0-5.302858-16.091429 20.224 20.224 0 0 0-14.738285-4.900571H30.500571c-6.948571-0.475429-12.214857 1.170286-15.835428 4.900571-3.657143 3.730286-5.12 9.142857-4.534857 16.091429V849.042286c1.097143 8.996571 3.657143 15.213714 7.570285 18.651428C21.650286 871.131429 28.233143 872.886857 37.485714 872.96h537.234286c10.715429 0.914286 18.651429-0.841143 23.771429-5.266286s8.118857-10.678857 8.996571-18.761143l21.430857-105.033142z m162.742857-456.045714a5.778286 5.778286 0 0 1 3.547429 1.206857 6.473143 6.473143 0 0 1 2.486857 5.595429l-6.4 95.378285 58.550857 73.179429a6.582857 6.582857 0 0 1 1.097143 6.034286 6.144 6.144 0 0 1-4.242286 4.205714l-88.393143 23.076571-48.201142 81.115429c-2.194286 3.730286-8.045714 3.730286-10.24 0l-48.201143-81.115429-88.393143-23.04a6.144 6.144 0 0 1-4.278857-4.242285 6.582857 6.582857 0 0 1 1.097143-6.034286l58.587428-73.179429-6.4-95.378285a6.473143 6.473143 0 0 1 2.486857-5.595429 5.851429 5.851429 0 0 1 5.851429-0.731429l84.370286 35.84 84.406857-35.84c0.731429-0.329143 1.499429-0.475429 2.267428-0.475428z"  horiz-adv-x="1024" />

    
    <glyph glyph-name="gerenxinxi" unicode="&#58900;" d="M80.938667 862.122667h1194.666666a42.666667 42.666667 0 0 0 42.666667-42.666667v-896a42.666667 42.666667 0 0 0-42.666667-42.666667h-1194.666666a42.666667 42.666667 0 0 0-42.666667 42.666667v896a42.666667 42.666667 0 0 0 42.666667 42.666667z m298.666666-170.666667a42.666667 42.666667 0 0 1-42.666666-42.666667v-170.666666a170.666667 170.666667 0 1 1 341.333333 0v170.666666a42.666667 42.666667 0 0 1-42.666667 42.666667h-256z m-80.512-682.666667h417.024c49.706667 0 90.154667 37.674667 90.154667 83.968v97.706667c0 16.768-13.568 31.146667-32.512 33.536l-237.610667 80.981333a84.053333 84.053333 0 0 1-39.594666 0.170667c-170.496-54.186667-255.872-81.237333-256.085334-81.237333-17.92-2.346667-31.530667-16.682667-31.530666-33.493334v-97.706666c0-46.250667 40.490667-83.925333 90.154666-83.925334z m613.845334 554.666667a21.333333 21.333333 0 0 1-21.333334-21.333333v-42.666667a21.333333 21.333333 0 0 1 21.333334-21.333333h213.333333a21.333333 21.333333 0 0 1 21.333333 21.333333v42.666667a21.333333 21.333333 0 0 1-21.333333 21.333333h-213.333333z m0-341.333333a21.333333 21.333333 0 0 1-21.333334-21.333334v-42.666666a21.333333 21.333333 0 0 1 21.333334-21.333334h213.333333a21.333333 21.333333 0 0 1 21.333333 21.333334v42.666666a21.333333 21.333333 0 0 1-21.333333 21.333334h-213.333333z m0 170.666666a21.333333 21.333333 0 0 1-21.333334-21.333333v-42.666667a21.333333 21.333333 0 0 1 21.333334-21.333333h213.333333a21.333333 21.333333 0 0 1 21.333333 21.333333v42.666667a21.333333 21.333333 0 0 1-21.333333 21.333333h-213.333333z"  horiz-adv-x="1322" />

    
    <glyph glyph-name="gongzuozhoubiao" unicode="&#58901;" d="M945.230769 777.846154h118.153846a39.384615 39.384615 0 0 0 39.384616-39.384616v-827.076923a39.384615 39.384615 0 0 0-39.384616-39.384615H39.384615a39.384615 39.384615 0 0 0-39.384615 39.384615V738.461538a39.384615 39.384615 0 0 0 39.384615 39.384616h118.153847V856.615385a39.384615 39.384615 0 0 0 39.384615 39.384615h157.538461a39.384615 39.384615 0 0 0 39.384616-39.384615v-78.769231h315.076923V856.615385a39.384615 39.384615 0 0 0 39.384615 39.384615h157.538462a39.384615 39.384615 0 0 0 39.384615-39.384615v-78.769231zM177.230769 265.846154a19.692308 19.692308 0 0 1-19.692307-19.692308v-39.384615a19.692308 19.692308 0 0 1 19.692307-19.692308h157.538462a19.692308 19.692308 0 0 1 19.692307 19.692308v39.384615a19.692308 19.692308 0 0 1-19.692307 19.692308h-157.538462z m0 275.692308a19.692308 19.692308 0 0 1-19.692307-19.692308v-78.769231a19.692308 19.692308 0 0 1 19.692307-19.692308h748.307693a19.692308 19.692308 0 0 1 19.692307 19.692308v78.769231a19.692308 19.692308 0 0 1-19.692307 19.692308h-748.307693z m590.769231-275.692308a19.692308 19.692308 0 0 1-19.692308-19.692308v-39.384615a19.692308 19.692308 0 0 1 19.692308-19.692308h157.538462a19.692308 19.692308 0 0 1 19.692307 19.692308v39.384615a19.692308 19.692308 0 0 1-19.692307 19.692308h-157.538462zM472.615385 265.846154a19.692308 19.692308 0 0 1-19.692308-19.692308v-39.384615a19.692308 19.692308 0 0 1 19.692308-19.692308h157.538461a19.692308 19.692308 0 0 1 19.692308 19.692308v39.384615a19.692308 19.692308 0 0 1-19.692308 19.692308h-157.538461z m-295.384616-151.552a19.692308 19.692308 0 0 1-19.692307-19.692308v-39.384615a19.692308 19.692308 0 0 1 19.692307-19.692308h157.538462a19.692308 19.692308 0 0 1 19.692307 19.692308v39.384615a19.692308 19.692308 0 0 1-19.692307 19.692308h-157.538462z m590.769231-5.986462a19.692308 19.692308 0 0 1-19.692308-19.692307v-39.384616a19.692308 19.692308 0 0 1 19.692308-19.692307h157.538462a19.692308 19.692308 0 0 1 19.692307 19.692307v39.384616a19.692308 19.692308 0 0 1-19.692307 19.692307h-157.538462zM472.615385 108.307692a19.692308 19.692308 0 0 1-19.692308-19.692307v-39.384616a19.692308 19.692308 0 0 1 19.692308-19.692307h157.538461a19.692308 19.692308 0 0 1 19.692308 19.692307v39.384616a19.692308 19.692308 0 0 1-19.692308 19.692307h-157.538461z"  horiz-adv-x="1102" />

    
    <glyph glyph-name="meijisanli" unicode="&#58902;" d="M345.719718-101.797647L275.605835-31.924706l-98.123294 25.389177c-7.077647 1.144471-8.523294 4.517647-4.336941 10.209882l48.730353 85.985882c2.891294 7.077647 10.420706 5.12 13.251765 3.011765 39.875765-30.569412 113.633882-69.150118 151.491764-82.582588 4.818824-1.716706 9.637647-3.373176 14.516706-4.939294 6.746353-0.903529 6.716235-9.246118 5.059765-12.318118l-50.296471-94.208c-2.680471-3.373176-6.053647-3.523765-10.179764-0.481882z m334.125176 4.969412c-4.126118-3.011765-7.529412-2.891294-10.179765 0.481882l-50.29647 94.208c-1.656471 3.072-1.686588 11.414588 5.059765 12.318118 4.848941 1.566118 9.728 3.222588 14.516705 4.939294 37.857882 13.432471 111.616 52.013176 151.491765 82.55247 2.861176 2.168471 10.390588 4.096 13.251765-3.011764l48.730353-85.955765c4.186353-5.662118 2.710588-9.065412-4.336941-10.209882l-98.123295-25.389177-70.113882-69.933176z m-270.45647 176.579764a405.082353 405.082353 0 0 0-202.360471 124.80753 405.865412 405.865412 0 0 0-101.496471 268.8c0 108.604235 42.315294 210.793412 119.055059 287.533176A404.088471 404.088471 0 0 0 512.149835 879.947294c108.604235 0 210.823529-42.315294 287.533177-119.055059a404.088471 404.088471 0 0 0 119.055059-287.533176c0-108.604235-42.315294-210.823529-119.055059-287.533177a404.088471 404.088471 0 0 0-287.533177-119.055058 408.274824 408.274824 0 0 0-102.701176 12.980705z m200.884705 227.960471a6.535529 6.535529 0 0 1 4.005647 1.355294 7.318588 7.318588 0 0 1 2.831059 6.324706l-7.258353 108.001882 66.319059 82.883765a7.469176 7.469176 0 0 1 1.264941 6.836706 6.987294 6.987294 0 0 1-4.848941 4.758588l-100.080941 26.142118-54.573176 91.828706c-2.499765 4.216471-9.125647 4.216471-11.625412 0l-54.573177-91.858824-100.050823-26.112a6.957176 6.957176 0 0 1-4.879059-4.758588 7.469176 7.469176 0 0 1 1.264941-6.836706l66.349177-82.883765-7.258353-107.971764a7.318588 7.318588 0 0 1 2.800941-6.324706 6.625882 6.625882 0 0 1 6.625882-0.873412l95.563294 40.628706 95.563294-40.628706a6.505412 6.505412 0 0 1 2.56-0.512z"  horiz-adv-x="1024" />

    
    <glyph glyph-name="xia" unicode="&#58903;" d="M911.9744 608.6656a38.4 38.4 0 1 0 53.6576-54.9376L527.872 126.10559999999998a38.4 38.4 0 0 0-54.272 0.6656l-420.3008 430.592a38.4 38.4 0 1 0 54.9888 53.6064L501.6576 207.87199999999996l410.3168 400.7424z"  horiz-adv-x="1024" />

    
    <glyph glyph-name="shang" unicode="&#58904;" d="M112.0256 159.33439999999996a38.4 38.4 0 1 0-53.6576 54.9376L496.128 641.8944a38.4 38.4 0 0 0 54.272-0.6656l420.3008-430.592a38.4 38.4 0 1 0-54.9888-53.6064L522.3424 560.1279999999999l-410.3168-400.7424z"  horiz-adv-x="1024" />

    
    <glyph glyph-name="you" unicode="&#58905;" d="M287.3344 783.9744000000001a38.4 38.4 0 1 0 54.9376 53.6576L769.8944 399.872a38.4 38.4 0 0 0-0.6656-54.272l-430.592-420.3008a38.4 38.4 0 1 0-53.6064 54.9888L688.128 373.6576l-400.7424 410.3168z"  horiz-adv-x="1024" />

    


  </font>
</defs>
</svg>
